<?xml version="1.0" encoding="UTF-8"?>
<svg version="1.1" xmlns="http://www.w3.org/2000/svg" width="375" height="100">
<path d="M0 0 C123.75 0 247.5 0 375 0 C375 33 375 66 375 100 C251.25 100 127.5 100 0 100 C0 67 0 34 0 0 Z " fill="#242124" transform="translate(0,0)"/>
<path d="M0 0 C6.579375 -0.061875 13.15875 -0.12375 19.9375 -0.1875 C21.99605225 -0.21481201 24.05460449 -0.24212402 26.17553711 -0.27026367 C27.83446672 -0.27903773 29.49340286 -0.28667948 31.15234375 -0.29296875 C31.99156372 -0.30831665 32.83078369 -0.32366455 33.69543457 -0.33947754 C40.43389223 -0.34241625 47.02286706 0.57128629 52.375 4.9375 C52.91125 5.618125 53.4475 6.29875 54 7 C54.556875 7.680625 55.11375 8.36125 55.6875 9.0625 C58.61049499 13.37739736 58.48121663 17.981598 58 23 C56.41600342 27.19759092 54.44288942 30.11241533 51 33 C50.34 33 49.68 33 49 33 C49 33.66 49 34.32 49 35 C49.556875 35.0825 50.11375 35.165 50.6875 35.25 C55.18130528 36.70745036 57.5018269 39.12390248 59.8125 43.1875 C61.6843453 49.1971086 62.02555663 54.34206174 59.4375 60.1875 C56.48653613 65.39324964 52.66040201 69.05573488 47.00097656 71.06445312 C42.32420347 72.35040067 37.72956009 72.25055545 32.91015625 72.1953125 C32.07190308 72.19329834 31.2336499 72.19128418 30.36999512 72.18920898 C27.26744031 72.17882081 24.1649641 72.15089875 21.0625 72.125 C14.111875 72.08375 7.16125 72.0425 0 72 C0 48.24 0 24.48 0 0 Z " fill="#FFFFFF" transform="translate(310,2)"/>
<path d="M0 0 C43.95563412 0 43.95563412 0 53.08984375 8.828125 C55.87189467 11.99135672 57.61887098 15.03211553 59 19 C59.22300781 19.6290625 59.44601563 20.258125 59.67578125 20.90625 C62.94937878 32.48632288 62.22473198 46.41125917 56.93359375 57.16796875 C51.7795436 66.23433419 46.28313936 68.91505819 36 72 C24.12 72 12.24 72 0 72 C0 48.24 0 24.48 0 0 Z " fill="#FFFFFF" transform="translate(104,2)"/>
<path d="M0 0 C5.28 0 10.56 0 16 0 C20.06764116 9.5379172 23.77149554 19.18520967 27.40136719 28.89648438 C28.36328725 31.46867986 29.32982327 34.03910513 30.296875 36.609375 C34.70113907 48.34847472 38.90382467 60.1500672 43 72 C38.05 72 33.1 72 28 72 C23 59.375 23 59.375 23 56 C13.43 56 3.86 56 -6 56 C-6.66 58.97 -7.32 61.94 -8 65 C-8.94280904 67.3570226 -9.92378945 69.70082291 -11 72 C-15.95 72 -20.9 72 -26 72 C-20.72624097 56.74338586 -15.2124426 41.58169903 -9.625 26.4375 C-8.39793517 23.10775577 -7.17132467 19.77784495 -5.94515991 16.44776917 C-5.19009498 14.39752561 -4.43444455 12.34749756 -3.6781311 10.29771423 C-3.34042694 9.38147781 -3.00272278 8.46524139 -2.65478516 7.52124023 C-2.35835114 6.71774643 -2.06191711 5.91425262 -1.75650024 5.08641052 C-1.14507584 3.40011587 -0.56722389 1.70167168 0 0 Z " fill="#FFFFFF" transform="translate(54,2)"/>
<path d="M0 0 C17.82 0 35.64 0 54 0 C54 3.96 54 7.92 54 12 C40.8 12 27.6 12 14 12 C14 17.28 14 22.56 14 28 C26.21 28 38.42 28 51 28 C51 31.96 51 35.92 51 40 C38.79 40 26.58 40 14 40 C14 46.6 14 53.2 14 60 C27.53 60 41.06 60 55 60 C55 63.96 55 67.92 55 72 C36.85 72 18.7 72 0 72 C0 48.24 0 24.48 0 0 Z " fill="#FFFFFF" transform="translate(243,2)"/>
<path d="M0 0 C17.82 0 35.64 0 54 0 C54 3.96 54 7.92 54 12 C40.8 12 27.6 12 14 12 C14 17.28 14 22.56 14 28 C26.21 28 38.42 28 51 28 C51 31.96 51 35.92 51 40 C38.79 40 26.58 40 14 40 C14 46.6 14 53.2 14 60 C27.53 60 41.06 60 55 60 C55 63.96 55 67.92 55 72 C36.85 72 18.7 72 0 72 C0 48.24 0 24.48 0 0 Z " fill="#FFFFFF" transform="translate(176,2)"/>
<path d="M0 0 C22.93181818 0 22.93181818 0 28.8125 5.75 C34.52300495 14.23417878 34.01110577 25.28761714 32.53515625 35.0859375 C31.06430505 40.88230967 29.06000001 43.7987755 24 47 C16.23212582 48.94196855 8.00694143 48 0 48 C0 32.16 0 16.32 0 0 Z " fill="#242124" transform="translate(118,14)"/>
<path d="M0 0 C3.85459456 -0.08124438 7.70746115 -0.14062344 11.5625 -0.1875 C12.64853516 -0.21263672 13.73457031 -0.23777344 14.85351562 -0.26367188 C21.01072598 -0.31981665 25.6358537 -0.15667868 31 3 C33.50031654 6.75047482 33.53603554 8.55856266 33 13 C30.45862841 16.15954305 28.85377341 17.71540886 25 19 C23.08093083 19.08266486 21.15910526 19.10740663 19.23828125 19.09765625 C18.12001953 19.09443359 17.00175781 19.09121094 15.84960938 19.08789062 C14.68236328 19.07951172 13.51511719 19.07113281 12.3125 19.0625 C11.13365234 19.05798828 9.95480469 19.05347656 8.74023438 19.04882812 C5.82680133 19.03703285 2.91339433 19.01909727 0 19 C0 12.73 0 6.46 0 0 Z " fill="#242124" transform="translate(324,43)"/>
<path d="M0 0 C3.89625106 -0.08098443 7.7908163 -0.14049807 11.6875 -0.1875 C12.79029297 -0.21263672 13.89308594 -0.23777344 15.02929688 -0.26367188 C16.09599609 -0.27333984 17.16269531 -0.28300781 18.26171875 -0.29296875 C19.24100342 -0.3086792 20.22028809 -0.32438965 21.22924805 -0.34057617 C24.4966933 0.06105271 26.35539654 1.07199121 29 3 C30.42662219 5.85324437 30.31033868 7.83454549 30 11 C27.84909549 14.33761045 26.79587201 15.73470933 23 17 C21.22686149 17.08209792 19.45079225 17.10746294 17.67578125 17.09765625 C16.64775391 17.09443359 15.61972656 17.09121094 14.56054688 17.08789062 C13.48869141 17.07951172 12.41683594 17.07113281 11.3125 17.0625 C10.22904297 17.05798828 9.14558594 17.05347656 8.02929688 17.04882812 C5.35284106 17.03703757 2.67641361 17.01910208 0 17 C0 11.39 0 5.78 0 0 Z " fill="#242124" transform="translate(324,14)"/>
<path d="M0 0 C1.8256187 2.73842805 2.83122636 4.97017534 3.9453125 8.03515625 C4.29980469 9.00904297 4.65429688 9.98292969 5.01953125 10.98632812 C5.38433594 12.00146484 5.74914062 13.01660156 6.125 14.0625 C6.49753906 15.08150391 6.87007812 16.10050781 7.25390625 17.15039062 C10 24.73986951 10 24.73986951 10 27 C3.73 27 -2.54 27 -9 27 C-6.38826851 17.85893979 -3.20652767 8.94507071 0 0 Z " fill="#242124" transform="translate(62,19)"/>
</svg>
